<svg width="98" height="98" viewBox="0 0 98 98" fill="none" xmlns="http://www.w3.org/2000/svg">
<path d="M85.75 71.4583C85.75 79.3514 79.3514 85.75 71.4583 85.75C63.5653 85.75 57.1667 79.3514 57.1667 71.4583M85.75 71.4583C85.75 63.5653 79.3514 57.1667 71.4583 57.1667C63.5653 57.1667 57.1667 63.5653 57.1667 71.4583M85.75 71.4583L79.273 24.5M57.1667 71.4583L57.9411 49M79.273 24.5L78.7741 20.8829C78.0917 15.9353 73.8631 12.25 68.8687 12.25C63.4804 12.25 59.0611 16.5195 58.8754 21.9046L58.7859 24.5M79.273 24.5H58.7859M58.7859 24.5L58.3635 36.75M12.25 71.4583C12.25 79.3514 18.6486 85.75 26.5417 85.75C34.4347 85.75 40.8333 79.3514 40.8333 71.4583M12.25 71.4583C12.25 63.5653 18.6486 57.1667 26.5417 57.1667C34.4347 57.1667 40.8333 63.5653 40.8333 71.4583M12.25 71.4583L18.727 24.5M40.8333 71.4583L40.0589 49M18.727 24.5L19.2259 20.8829C19.9083 15.9353 24.1369 12.25 29.1313 12.25C34.5196 12.25 38.9389 16.5195 39.1246 21.9046L39.2141 24.5M18.727 24.5H39.2141M39.2141 24.5L39.6365 36.75M40.0589 49C46.9583 43.8958 51.0417 43.8958 57.9411 49M40.0589 49L39.6365 36.75M57.9411 49L58.3635 36.75M39.6365 36.75C46.9583 32.6667 51.0417 32.6667 58.3635 36.75" stroke="#292556" stroke-width="6.125" stroke-linecap="round" stroke-linejoin="round"/>
</svg>
