<svg width="98" height="98" viewBox="0 0 98 98" fill="none" xmlns="http://www.w3.org/2000/svg">
<path d="M38.7917 51.0423L42.1964 55.582C43.306 57.0614 43.8607 57.8011 44.602 57.9634C44.8392 58.0153 45.0838 58.0246 45.3242 57.9906C46.0756 57.8845 46.6844 57.1887 47.9021 55.797L59.2083 42.8757M49 87.7923C67.5648 87.7923 79.1541 67.1755 83.7677 45.4191C84.8422 40.3522 85.3794 37.8187 84.4831 34.8237C84.2207 33.9471 83.721 32.8151 83.2501 32.0307C81.6409 29.3503 79.0391 27.8245 73.8355 24.773L60.1541 16.75C55.3318 13.9221 52.9207 12.5082 50.297 12.2288C49.4348 12.137 48.5652 12.137 47.703 12.2288C45.0793 12.5082 42.6682 13.9221 37.8459 16.75L24.1645 24.773C18.9609 27.8245 16.3591 29.3503 14.7499 32.0307C14.279 32.8151 13.7793 33.9471 13.5169 34.8237C12.6206 37.8187 13.1578 40.3522 14.2323 45.4191C18.8459 67.1755 30.4352 87.7923 49 87.7923Z" stroke="#292556" stroke-width="6.125" stroke-linecap="round" stroke-linejoin="round"/>
</svg>
