<svg width="72" height="72" viewBox="0 0 72 72" fill="none" xmlns="http://www.w3.org/2000/svg">
<path d="M36.9148 17.2655C36.6273 17.6188 36.2747 17.9366 36.0614 18.3292C34.0293 22.0629 32.0214 25.8093 30.0089 29.552C29.9438 29.6731 29.8758 29.7919 29.7653 29.9916L22.873 16.9629L37.1418 17.1142C40.6091 21.8049 44.6045 26 49.1854 29.6398L49.1204 29.751H48.8026C45.0001 29.751 41.1977 29.7465 37.3944 29.7586C37.0676 29.7586 36.9511 29.6738 36.9496 29.3447C36.9451 28.4898 36.8966 27.6357 36.8951 26.7808C36.8891 23.985 36.8918 21.1895 36.9034 18.3943C36.9034 18.047 36.97 17.699 37.0056 17.3518L36.9148 17.2655Z" fill="#121212"/>
<path d="M8.48828 48.8944V45.2848H14.0619L14.1163 45.1812L10.5938 42.1421L13.0216 39.4941C13.1411 39.6349 13.2387 39.7597 13.3469 39.8724C14.2101 40.7939 15.0529 41.7275 15.9449 42.6097C17.2386 43.8958 18.7359 44.4768 20.6053 43.7301C20.6053 44.29 20.6227 44.7999 20.5985 45.3075C20.5834 45.6215 20.6992 45.6987 21.0003 45.7312C22.9068 45.9325 24.7967 45.8961 26.6548 45.3817C29.5002 44.5941 31.5641 42.8094 33.0538 40.309C33.1241 40.1909 33.196 40.0744 33.2762 39.942C33.3378 39.9592 33.3976 39.9823 33.4547 40.0109C35.3719 41.2274 36.6762 42.882 36.8865 45.1963C37.1846 48.476 34.4943 49.6986 32.2806 49.2273C31.5104 49.0631 30.9868 48.5267 30.5828 47.8753C30.3854 47.5568 30.2046 47.2262 30.0071 46.8774C29.9478 46.9064 29.8909 46.94 29.8369 46.978C28.2481 48.3285 26.3635 48.8581 24.3284 48.9405C23.4961 48.9746 22.6639 48.9458 21.8317 48.9405C21.1296 48.9405 20.9057 49.0919 20.6545 49.7622C20.6454 49.7856 20.6326 49.8076 20.6258 49.8318C20.283 50.9938 19.5257 51.6634 18.3054 51.7754C17.8061 51.8215 17.306 51.8556 16.7166 51.9025C16.846 51.7572 16.9133 51.6755 16.9852 51.5998C17.219 51.3532 17.4747 51.1247 17.6858 50.8599C18.4174 49.946 18.462 48.9542 17.9528 47.9268C17.4588 46.9304 16.6251 46.4484 15.5318 46.5143C13.2499 46.6503 11.0375 47.3512 9.09353 48.5539C8.93238 48.6523 8.7735 48.7537 8.61311 48.8528C8.57249 48.8694 8.53078 48.8834 8.48828 48.8944ZM32.8593 45.157C32.8639 45.7365 33.2891 46.17 33.8512 46.167C34.3467 46.167 34.8302 45.741 34.8347 45.3068C34.8392 44.7923 34.1939 44.1629 33.6711 44.1719C33.1892 44.1833 32.8548 44.5888 32.8593 45.157Z" fill="#121212"/>
<path d="M46.1074 51.46C46.1748 51.4111 46.2447 51.3659 46.317 51.3246C47.7295 50.6112 48.4777 49.4204 48.6623 47.8921C48.7841 46.8957 48.7819 45.8842 48.825 44.8787C48.8256 44.7278 48.8026 44.5777 48.7569 44.4339C48.5246 43.5911 48.7955 42.9117 49.3924 42.3095C49.9144 41.7799 50.4009 41.2223 50.9108 40.6828C50.9865 40.6027 51.1007 40.5595 51.1968 40.499C51.2498 40.614 51.3481 40.726 51.3481 40.8425C51.3595 42.0772 51.3549 43.3111 51.3549 44.5458V45.0126H56.1303L52.0139 41.4977L54.2836 38.9844C54.6308 39.3127 54.9645 39.6252 55.2989 39.9437C56.7719 41.3592 58.2623 42.7641 60.0652 43.756C61.0184 44.2803 62.0428 44.6782 63.0483 45.1034C63.3827 45.2441 63.646 45.4257 63.6535 45.7911C63.6732 46.9691 63.6611 48.1486 63.6611 49.3742C63.5378 49.2834 63.4341 49.2184 63.3441 49.1404C61.6797 47.7204 59.7209 46.9941 57.564 46.9464C56.0743 46.9131 54.5779 47.0977 53.0867 47.2157C52.4444 47.2649 51.9375 47.6114 51.6212 48.1645C51.3335 48.6795 51.0785 49.2121 50.8579 49.7593C50.3222 51.0538 49.4484 51.6462 48.0586 51.6227C47.5177 51.6136 46.976 51.6091 46.4343 51.5985C46.3291 51.5985 46.2247 51.5765 46.1195 51.5644L46.1074 51.46Z" fill="#121212"/>
<path d="M40.5935 41.6738C41.8585 41.9825 43.0826 42.1845 44.2379 42.5855C46.3139 43.3065 47.3776 45.0821 47.2588 47.2966C47.1832 48.6584 46.6392 49.7062 45.3674 50.2729C44.2742 50.7601 43.2052 50.5929 42.1899 49.9945C42.0287 49.8999 41.8736 49.7955 41.7049 49.6918C41.3509 50.0928 41.024 50.4885 40.6692 50.8592C40.1979 51.354 39.6327 51.6861 38.9435 51.7943C37.9728 51.9456 36.8758 51.4508 36.3379 50.58C36.5051 50.5203 36.6662 50.4598 36.8297 50.4053C39.2196 49.6011 40.5474 47.8012 40.5875 45.2751C40.6087 44.1152 40.5935 42.9577 40.5935 41.6738ZM43.9042 45.1638C43.3293 45.1638 42.901 45.6594 42.9169 46.3047C42.9245 46.6074 43.6538 47.1498 44.0518 47.1445C44.5352 47.1385 44.8923 46.6989 44.8787 46.1239C44.8651 45.5368 44.4845 45.1616 43.9042 45.1638Z" fill="#121212"/>
<path d="M22.5039 39.7214C23.2045 38.7734 23.8839 37.8542 24.5935 36.8926C25.5354 37.6673 26.5976 38.2741 27.3043 39.2803C28.2992 40.6981 27.7968 42.3928 26.1884 43.0321C24.9983 43.5041 23.8317 43.4103 22.6325 42.7499C23.0517 42.5675 23.4095 42.4109 23.7674 42.2558C24.07 42.1265 24.3726 42.013 24.6662 41.8662C24.7978 41.8004 24.9688 41.6808 24.9884 41.5636C25.0081 41.4463 24.8568 41.2905 24.7403 41.211C24.1184 40.7836 23.4837 40.3788 22.8542 39.9597C22.7513 39.8931 22.6492 39.8212 22.5039 39.7214Z" fill="#121212"/>
<path d="M57.7398 49.4417C56.9628 49.7618 56.2879 50.0288 55.6214 50.3216C55.4815 50.3837 55.3233 50.5251 55.2893 50.6598C55.2673 50.7468 55.4353 50.9163 55.5541 50.998C56.1752 51.427 56.8077 51.8393 57.4356 52.2584C57.537 52.3265 57.6339 52.4014 57.7572 52.4899L55.7629 55.2007C54.5766 54.5463 53.4584 53.8585 52.7858 52.6465C52.223 51.632 52.3667 50.597 53.2118 49.7951C54.1514 48.9023 55.2802 48.7071 56.5074 49.0045C56.8932 49.0983 57.2594 49.2692 57.7398 49.4417Z" fill="#121212"/>
</svg>
