<svg width="58" height="40" viewBox="0 0 58 40" fill="none" xmlns="http://www.w3.org/2000/svg">
<path d="M19.2891 1.00784C19.2895 0.740698 19.3948 0.484633 19.5819 0.295732C19.7689 0.10683 20.0225 0.000489729 20.287 0L31.4642 0C33.3559 -6.31617e-08 35.1702 0.758839 36.5081 2.10963C37.8459 3.46043 38.5978 5.29257 38.5983 7.20312V12.3016C38.5978 14.2122 37.8459 16.0443 36.5081 17.3951C35.1702 18.7459 33.3559 19.5047 31.4642 19.5047H20.2925C20.1613 19.5055 20.0312 19.4801 19.9098 19.43C19.7883 19.3799 19.6778 19.3061 19.5846 19.2128C19.4914 19.1196 19.4173 19.0087 19.3666 18.8864C19.3159 18.7642 19.2895 18.6331 19.2891 18.5006V1.00784Z" fill="#121212"/>
<path d="M28.9427 12.273C27.9005 12.2721 26.8713 12.0392 25.9283 11.5909C24.9854 11.1426 24.1519 10.4899 23.4871 9.67929C23.4401 9.62126 23.4055 9.55407 23.3854 9.4819C23.3653 9.40974 23.3602 9.33416 23.3703 9.2599C23.3805 9.18564 23.4057 9.1143 23.4444 9.05035C23.4831 8.98639 23.5345 8.93119 23.5953 8.88821L24.4924 8.2546C24.6037 8.17884 24.7387 8.14682 24.8718 8.16457C25.0049 8.18231 25.127 8.24859 25.2151 8.35094C25.6765 8.89325 26.2484 9.32849 26.8918 9.62687C27.5351 9.92525 28.2347 10.0797 28.9427 10.0797C29.6506 10.0797 30.3502 9.92525 30.9936 9.62687C31.6369 9.32849 32.2089 8.89325 32.6702 8.35094C32.7566 8.24659 32.8786 8.17878 33.0121 8.16094C33.1456 8.1431 33.2809 8.17653 33.3912 8.2546L34.2882 8.88821C34.3494 8.93087 34.4011 8.98588 34.4402 9.04976C34.4792 9.11365 34.5047 9.18502 34.5151 9.25936C34.5254 9.33371 34.5204 9.40942 34.5003 9.4817C34.4802 9.55398 34.4454 9.62126 34.3983 9.67929C33.7332 10.4896 32.8997 11.1421 31.9568 11.5904C31.0139 12.0386 29.9848 12.2717 28.9427 12.273Z" fill="#F6F6F6"/>
<path d="M56.9151 28.4995C56.6076 28.1875 56.2419 27.9401 55.8392 27.7716C55.4365 27.6031 55.0048 27.5167 54.5689 27.5176H50.5772C50.5157 27.5176 50.4549 27.5298 50.3981 27.5535C50.3414 27.5773 50.2898 27.6121 50.2464 27.656C50.2029 27.6998 50.1685 27.7519 50.145 27.8092C50.1215 27.8665 50.1094 27.928 50.1094 27.99V29.3147C50.1094 29.44 50.1587 29.5601 50.2464 29.6487C50.3341 29.7373 50.4531 29.7871 50.5772 29.7871H54.5689C54.7097 29.7868 54.8492 29.8146 54.9794 29.8689C55.1096 29.9232 55.2279 30.0028 55.3276 30.1033C55.4273 30.2038 55.5063 30.3232 55.5603 30.4546C55.6142 30.586 55.642 30.7268 55.642 30.869V33.0589C55.6426 33.2011 55.6152 33.3419 55.5614 33.4733C55.5075 33.6047 55.4283 33.7239 55.3283 33.824C55.2288 33.9245 55.1107 34.0042 54.9807 34.0585C54.8507 34.1129 54.7114 34.1408 54.5707 34.1408H50.5772C50.4531 34.1408 50.3341 34.1906 50.2464 34.2792C50.1587 34.3678 50.1094 34.488 50.1094 34.6133V35.9379C50.1094 36.0632 50.1587 36.1834 50.2464 36.272C50.3341 36.3606 50.4531 36.4103 50.5772 36.4103H54.5689C55.4488 36.4098 56.2926 36.0566 56.9149 35.4282C57.5371 34.7998 57.8869 33.9476 57.8874 33.0589V30.869C57.8882 30.4288 57.8027 29.9928 57.6358 29.5861C57.469 29.1794 57.224 28.8101 56.9151 28.4995Z" fill="#121212"/>
<path d="M48.4508 29.7871H47.1392C47.0151 29.7871 46.8961 29.8369 46.8084 29.9255C46.7207 30.014 46.6714 30.1342 46.6714 30.2595V33.0589C46.672 33.2011 46.6446 33.3419 46.5907 33.4733C46.5369 33.6047 46.4577 33.7239 46.3577 33.824C46.1565 34.0266 45.8841 34.1405 45.6001 34.1408H41.9881V30.8542V30.8135C41.9751 29.9344 41.62 29.0959 40.9997 28.4792C40.3794 27.8624 39.5437 27.517 38.6733 27.5176H35.4704C35.3992 27.518 35.3292 27.5349 35.2655 27.5671C35.2019 27.5992 35.1465 27.6456 35.1035 27.7028L33.9533 29.2405C33.9159 29.2912 33.8932 29.3513 33.8876 29.4142C33.8821 29.4771 33.894 29.5403 33.922 29.5968C33.9499 29.6533 33.9929 29.7008 34.046 29.7341C34.0992 29.7673 34.1604 29.7851 34.2229 29.7852H38.6861C38.9674 29.7857 39.2372 29.8979 39.4373 30.0975C39.6374 30.2972 39.7517 30.5683 39.7556 30.8524V34.1408H31.0109C30.8868 34.1408 30.7678 34.1906 30.6801 34.2792C30.5924 34.3678 30.5431 34.488 30.5431 34.6132V35.9379C30.5431 36.0632 30.5924 36.1834 30.6801 36.272C30.7678 36.3605 30.8868 36.4103 31.0109 36.4103H32.4784C32.4546 36.6791 32.3319 36.9292 32.1347 37.1113C31.9374 37.2933 31.6798 37.3942 31.4126 37.3941H27.7657C27.6251 37.3941 27.4858 37.3661 27.3558 37.3117C27.2258 37.2573 27.1077 37.1777 27.0082 37.0772C26.9087 36.9767 26.8298 36.8574 26.776 36.7262C26.7222 36.5949 26.6944 36.4542 26.6944 36.3121V32.4827C26.6944 32.4207 26.6823 32.3592 26.6588 32.3019C26.6353 32.2446 26.6009 32.1925 26.5574 32.1486C26.514 32.1048 26.4624 32.07 26.4057 32.0462C26.3489 32.0225 26.2881 32.0103 26.2267 32.0103H24.915C24.791 32.0103 24.672 32.06 24.5843 32.1486C24.4966 32.2372 24.4473 32.3574 24.4473 32.4827V34.3001V36.3195C24.4473 37.2086 24.7968 38.0612 25.4191 38.69C26.0414 39.3188 26.8855 39.6724 27.7657 39.6728H31.4016C32.2646 39.6732 33.0936 39.3334 33.7124 38.7258C34.3311 38.1182 34.6907 37.2908 34.7146 36.4196H41.535C41.659 36.4196 41.778 36.3698 41.8657 36.2812C41.9535 36.1926 42.0028 36.0725 42.0028 35.9472V35.5025L42.5402 36.2214C42.5836 36.2781 42.6392 36.3243 42.7027 36.3564C42.7662 36.3885 42.8361 36.4056 42.9071 36.4066H45.5872C46.0237 36.4081 46.4562 36.3226 46.86 36.1551C47.2637 35.9876 47.6308 35.7413 47.9402 35.4304C48.2496 35.1194 48.4953 34.7499 48.6632 34.343C48.831 33.9361 48.9178 33.4997 48.9186 33.0589V30.2595C48.9186 30.1342 48.8693 30.014 48.7815 29.9255C48.6938 29.8369 48.5748 29.7871 48.4508 29.7871Z" fill="#121212"/>
<path d="M8.15404 26.6135C8.15211 26.4894 8.10198 26.3712 8.01446 26.2842C7.92694 26.1972 7.80906 26.1484 7.68626 26.1484H6.37464C6.25058 26.1484 6.1316 26.1982 6.04387 26.2868C5.95614 26.3754 5.90686 26.4956 5.90686 26.6209V33.0588C5.90686 33.2012 5.87903 33.3422 5.82496 33.4737C5.77089 33.6053 5.69166 33.7247 5.59179 33.8252C5.49192 33.9257 5.37338 34.0053 5.24298 34.0595C5.11258 34.1137 4.97288 34.1413 4.83189 34.1408H0.46778C0.343717 34.1408 0.224734 34.1906 0.137008 34.2792C0.0492827 34.3678 0 34.4879 0 34.6132V35.9379C0 36.0632 0.0492827 36.1833 0.137008 36.2719C0.224734 36.3605 0.343717 36.4103 0.46778 36.4103H4.83189C5.26792 36.4105 5.69973 36.324 6.10266 36.1557C6.50559 35.9875 6.87175 35.7407 7.18024 35.4294C7.48873 35.1182 7.73351 34.7487 7.90059 34.342C8.06768 33.9352 8.1538 33.4992 8.15404 33.0588V31.0394V26.6135Z" fill="#121212"/>
<path d="M37.8536 37.6211H36.542C36.2836 37.6211 36.0742 37.8326 36.0742 38.0935V39.1903C36.0742 39.4512 36.2836 39.6627 36.542 39.6627H37.8536C38.112 39.6627 38.3214 39.4512 38.3214 39.1903V38.0935C38.3214 37.8326 38.112 37.6211 37.8536 37.6211Z" fill="#121212"/>
<path d="M47.2629 37.6211H43.9756C43.7172 37.6211 43.5078 37.8326 43.5078 38.0935V39.1903C43.5078 39.4512 43.7172 39.6627 43.9756 39.6627H47.2629C47.5212 39.6627 47.7307 39.4512 47.7307 39.1903V38.0935C47.7307 37.8326 47.5212 37.6211 47.2629 37.6211Z" fill="#121212"/>
<path d="M1.68045 32.3771C1.70778 32.4772 1.76691 32.5656 1.84877 32.6285C1.93063 32.6914 2.03068 32.7254 2.13355 32.7254H3.41765C3.48956 32.7254 3.5605 32.7086 3.62495 32.6764C3.6894 32.6442 3.74564 32.5974 3.7893 32.5397C3.83295 32.482 3.86284 32.4149 3.87665 32.3437C3.89046 32.2724 3.88782 32.1989 3.86892 32.1288L2.34818 26.4893C2.31987 26.3907 2.26051 26.3041 2.17908 26.2426C2.09765 26.181 1.9986 26.148 1.89691 26.1484H0.612812C0.540782 26.1481 0.469648 26.1646 0.405 26.1967C0.340351 26.2287 0.28395 26.2755 0.240221 26.3333C0.196493 26.3911 0.166627 26.4584 0.152976 26.5298C0.139324 26.6013 0.142256 26.6749 0.161541 26.745L1.68045 32.3771Z" fill="#121212"/>
<path d="M18.522 27.5026H17.7112L19.6905 24.8866C19.7257 24.84 19.7473 24.7843 19.7528 24.7259C19.7584 24.6676 19.7477 24.6088 19.7219 24.5562C19.6962 24.5036 19.6564 24.4594 19.6071 24.4284C19.5578 24.3974 19.5009 24.3809 19.4429 24.3809H17.4727C17.4016 24.3817 17.3317 24.3988 17.2681 24.4309C17.2046 24.463 17.1491 24.5092 17.1058 24.5661L13.7396 29.0273C13.6868 29.097 13.6542 29.1801 13.6456 29.2674C13.6369 29.3547 13.6525 29.4428 13.6906 29.5216C13.7287 29.6005 13.7878 29.6671 13.8612 29.7139C13.9347 29.7608 14.0196 29.7861 14.1065 29.7869H18.5091C19.1023 29.7874 19.6714 30.0239 20.0931 30.4453C20.5148 30.8666 20.7551 31.4388 20.7618 32.0379V34.1406H12.8738C12.5897 34.1403 12.3173 34.0264 12.1161 33.8238C12.0162 33.7237 11.937 33.6045 11.8831 33.4731C11.8292 33.3418 11.8018 33.2009 11.8025 33.0587V26.6133C11.8006 26.4909 11.7517 26.374 11.6662 26.2872C11.5806 26.2005 11.4651 26.1507 11.3438 26.1483H10.0322C9.90817 26.1483 9.78919 26.1981 9.70146 26.2867C9.61374 26.3753 9.56445 26.4954 9.56445 26.6207V31.0393V33.0587C9.56494 33.9474 9.91472 34.7996 10.537 35.428C11.1592 36.0564 12.003 36.4097 12.8829 36.4101H22.5742C22.691 36.4097 22.8033 36.3651 22.8892 36.2852C22.9751 36.2054 23.0283 36.0959 23.0383 35.9785V34.3389V32.062C23.0379 30.8526 22.5618 29.6929 21.7149 28.8379C20.8679 27.9829 19.7195 27.5026 18.522 27.5026Z" fill="#121212"/>
</svg>
