<svg width="72" height="72" viewBox="0 0 72 72" fill="none" xmlns="http://www.w3.org/2000/svg">
<g clip-path="url(#clip0_193_3347)">
<path d="M5.625 33.2664C5.67919 33.1374 5.74216 33.0113 5.78756 32.8794C6.55496 30.6228 8.78831 29.6022 11.0319 30.4825C13.1042 31.2961 14.0005 33.6548 12.9958 35.6832C12.3998 36.888 11.7759 38.0816 11.1667 39.2864C11.9384 39.5444 12.3383 39.3204 12.6766 38.633C13.6417 36.6258 14.7005 34.664 15.6934 32.6682C15.9014 32.2529 16.1328 32.0516 16.6336 32.0885C17.2282 32.1324 17.8301 32.0998 18.435 32.0998C18.1611 32.8936 17.9165 33.6066 17.6705 34.3168C17.5372 34.4415 17.3586 34.5464 17.278 34.6981C16.8694 35.4734 16.4857 36.2573 16.0932 37.0454C15.7168 37.7981 15.3419 38.5479 14.9495 39.3374H17.6515V34.2955L19.8995 34.1778V39.3304L21.446 39.4111V41.6096L19.9815 41.6748V43.5431H17.6075V41.6663H7.35604C7.47612 41.3828 7.54203 41.2042 7.6299 41.0327C8.72388 38.9065 9.82664 36.7803 10.9148 34.6442C11.2692 33.9496 11.1169 33.2494 10.5633 32.7788C10.3113 32.5689 9.99841 32.4396 9.66752 32.4087C9.33662 32.3777 9.00394 32.4466 8.71509 32.6059C8.14833 32.9333 7.75877 33.6973 7.99602 34.3182C8.1703 34.7746 8.55985 35.1531 8.93916 35.686L8.01359 37.4805C7.5237 37.3099 7.07984 37.0346 6.71499 36.6751C6.35014 36.3156 6.07369 35.8811 5.90618 35.404C5.81392 35.1644 5.71873 34.9248 5.625 34.6839V33.2664Z" fill="#121212"/>
<path d="M52.5825 30.1074V33.9686C52.5825 35.5278 52.5664 37.0871 52.5942 38.6463C52.6162 39.8922 53.3265 40.4748 54.5947 40.2934C54.1179 39.2223 54.0321 38.0259 54.3516 36.9014C54.6599 35.8349 55.3544 34.9115 56.3082 34.2999C57.262 33.6882 58.4114 33.4293 59.5462 33.5703C61.8308 33.8269 63.657 35.6398 63.7786 37.7731C63.925 40.2891 62.4869 42.4139 60.0529 42.6861C57.8557 42.9115 55.6393 42.8986 53.4451 42.6478C51.4651 42.4366 50.1998 40.7229 50.1895 38.7767C50.1763 36.6746 50.2012 34.5725 50.1895 32.4703C50.1895 32.0281 50.3008 31.7233 50.6977 31.4696C51.2996 31.0798 51.8649 30.6291 52.5825 30.1074ZM58.9589 40.5514C60.3678 40.5599 61.3944 39.5676 61.3958 38.1969C61.4068 37.6028 61.1738 37.0286 60.748 36.6005C60.3222 36.1724 59.7383 35.9253 59.1244 35.9134C58.7958 35.9015 58.468 35.9531 58.1603 36.0652C57.8526 36.1773 57.571 36.3477 57.3321 36.5664C57.0932 36.7851 56.9017 37.0477 56.7689 37.3389C56.6361 37.63 56.5646 37.9439 56.5586 38.2621C56.5322 39.569 57.5501 40.5428 58.9589 40.5514Z" fill="#121212"/>
<path d="M36.5938 42.797C37.7653 40.488 38.8652 38.2058 40.0793 35.9833C41.1337 34.0541 43.534 33.1582 45.6443 33.7748C47.8133 34.4084 49.1591 36.3376 49.001 38.5942C48.8428 40.8509 47.3227 42.4214 44.9809 42.7772C44.3799 42.8599 43.7734 42.8987 43.1664 42.8934C41.0502 42.9019 38.9355 42.8934 36.8193 42.8778C36.7412 42.8591 36.6656 42.832 36.5938 42.797ZM44.2619 35.894C43.5984 35.9059 42.9664 36.1701 42.5027 36.6296C42.0389 37.089 41.7807 37.7067 41.7839 38.349C41.8 39.6588 42.8574 40.617 44.2589 40.5957C44.8992 40.5871 45.5102 40.3345 45.9593 39.8927C46.4084 39.4508 46.6594 38.8554 46.6578 38.2356C46.6629 37.9287 46.6045 37.6238 46.4862 37.339C46.3679 37.0541 46.192 36.7951 45.9688 36.5769C45.7456 36.3588 45.4796 36.186 45.1865 36.0687C44.8934 35.9514 44.579 35.892 44.2619 35.894Z" fill="#121212"/>
<path d="M33.5275 36.1232C33.8907 35.4329 34.2187 34.8064 34.5438 34.1855C36.3364 34.4818 38.0161 36.4918 37.9122 38.2183C37.8897 38.4041 37.8295 38.5838 37.735 38.747C37.1111 39.9731 36.4638 41.1879 35.8589 42.4239C35.6729 42.8009 35.4401 42.9243 35.0169 42.9214C32.6312 42.9044 30.2455 42.9342 27.8584 42.9115C26.7374 42.9036 25.6601 42.4893 24.8392 41.7504C24.0182 41.0114 23.5133 40.0015 23.4239 38.9199C23.3477 37.9135 23.4122 36.8972 23.4122 35.8383H25.7686C25.7686 36.6704 25.7583 37.4897 25.7686 38.309C25.792 39.6938 26.6707 40.5769 28.0956 40.5897C29.7256 40.6109 31.3585 40.5897 32.9885 40.5897C34.3066 40.5812 35.1926 39.9603 35.443 38.8887C35.6935 37.8171 35.1941 36.9553 34.0371 36.3713C33.8965 36.3004 33.7427 36.2281 33.5275 36.1232Z" fill="#121212"/>
<path d="M67.4999 42.8509H65.0454V42.1181C65.0454 38.8834 65.0454 35.6502 65.0234 32.4169C65.0234 31.9307 65.1699 31.6359 65.5829 31.3793C66.217 30.9909 66.8101 30.5416 67.4999 30.0625V42.8509Z" fill="#121212"/>
<path d="M25.727 34.5967H23.4219V32.5371H25.727V34.5967Z" fill="#121212"/>
<path d="M28.8339 34.6025H26.5391V32.5273H28.8339V34.6025Z" fill="#121212"/>
<path d="M56.1582 30.041H58.4384V32.0935H56.1582V30.041Z" fill="#121212"/>
<path d="M61.5346 32.0976H59.2617V30.0664H61.5346V32.0976Z" fill="#121212"/>
</g>
<defs>
<clipPath id="clip0_193_3347">
<rect width="61.875" height="13.5" fill="white" transform="translate(5.625 30.041)"/>
</clipPath>
</defs>
</svg>
