<svg width="72" height="72" viewBox="0 0 72 72" fill="none" xmlns="http://www.w3.org/2000/svg">
<g clip-path="url(#clip0_193_3285)">
<path d="M36 22.166C51.533 22.166 64.125 28.462 64.125 36.2285C64.125 43.995 51.533 50.291 36 50.291C20.467 50.291 7.875 43.995 7.875 36.2285C7.875 28.462 20.467 22.166 36 22.166ZM36 24.4512C21.7292 24.4512 10.1602 29.7243 10.1602 36.2285C10.1606 42.7326 21.7295 48.0049 36 48.0049C50.2703 48.0048 61.8384 42.7325 61.8389 36.2285C61.8389 29.7243 50.2706 24.4513 36 24.4512Z" fill="#121212"/>
<path d="M39.782 33.9162C39.782 33.76 39.765 33.4048 39.7133 32.8871C39.6314 32.1116 39.6007 31.8469 39.5522 31.5158L37.8351 31.8017C37.9188 32.4874 37.978 33.0132 38.0127 33.3791C38.0471 33.7444 38.0643 34.0002 38.0643 34.1447C38.0612 34.2996 37.9361 34.3792 37.8641 34.4076C37.7827 34.4428 37.5177 34.5544 36.9783 34.545H36.6924C36.3185 34.545 36.0539 34.4783 35.8983 34.3448C35.7414 34.2116 35.6615 33.9659 35.6615 33.6077V32.3731H34.1238C34.1238 33.7456 34.0323 34.0035 33.9805 34.1844C33.9267 34.3446 33.831 34.5592 33.4375 34.5444C33.1867 34.5445 32.8539 34.4927 32.6145 34.2016C32.6222 34.1021 32.6281 33.9842 32.6317 33.8463C32.6393 33.55 32.6376 33.4911 32.6376 32.6005H31.0946C31.1074 33.7798 30.9157 34.1102 30.9004 34.1471C30.8817 34.1936 30.7427 34.558 30.2372 34.5414C29.6336 34.5373 29.489 34.274 29.4142 34.1412C29.4219 34.0423 29.4272 33.928 29.4314 33.7983C29.4388 33.5644 29.4373 33.4544 29.4373 32.6017H27.8937C27.9079 33.7473 27.7369 34.0394 27.6426 34.1731C27.4801 34.4069 27.1811 34.563 26.5792 34.545H26.3483C25.9319 34.5502 25.6872 34.4527 25.5199 34.3105C25.225 34.0497 25.1964 33.5819 25.2031 33.3448V28.3711L23.4316 28.5428L23.6027 36.7731C23.5769 37.1985 22.993 37.4533 22.9798 37.4593C22.817 37.5352 22.21 37.8141 21.2023 37.8021C20.2922 37.821 19.887 37.504 19.8245 37.4593C19.5617 37.2689 19.4253 36.9616 19.4301 36.602C19.4301 36.1717 19.4789 35.8675 19.5006 35.7393C19.6112 35.023 19.8142 34.2285 19.8351 34.1447L18.4638 33.7439C18.3473 34.0528 17.7226 35.6508 17.7207 37.0004C17.7207 39.6512 19.772 40.0301 21.0927 40.0296C21.7495 40.0347 22.962 39.912 24.0077 39.1148C24.3694 38.8367 25.2285 38.0323 25.2079 36.6576V36.3722C25.2661 36.4376 25.5531 36.7877 26.3483 36.7737H26.5768C27.2243 36.7737 28.0192 36.6666 28.5201 35.9163C29.0828 36.7664 29.8156 36.776 30.1774 36.776C31.1674 36.7757 31.535 36.3408 31.7802 35.9737C31.836 36.0563 32.041 36.3635 32.5375 36.5854C32.7366 36.6753 33.0342 36.7718 33.3837 36.7737C34.2674 36.7949 34.7614 36.0805 34.8675 35.9163C34.9723 36.1156 35.2038 36.4402 35.6964 36.625C35.7472 36.6439 36.0382 36.7705 36.6965 36.7719H36.925C38.1617 36.7807 38.7614 36.2825 38.9311 36.1377C39.7625 35.4055 39.782 34.3312 39.782 33.9162Z" fill="#121212"/>
<path d="M38.583 30.7131L39.6121 29.6846V29.5129L38.583 28.4844H38.4119L37.3828 29.5129V29.6846L38.4119 30.7131H38.583Z" fill="#121212"/>
<path d="M42.4103 36.7156V28.3711L40.6387 28.5428L40.8104 36.8299L42.4103 36.7156Z" fill="#121212"/>
<path d="M49.4402 37.6172L48.4685 38.5888L47.4969 37.6172H47.3252L46.3535 38.5888V38.76L47.3252 39.7316H47.4969L48.4685 38.76L49.4402 39.7316H49.6113L50.5829 38.76V38.5888L49.6113 37.6172H49.4402Z" fill="#121212"/>
<path d="M46.9252 36.7739H47.1544C48.3909 36.7826 48.9908 36.2844 49.1604 36.1398C49.9917 35.4063 50.0119 34.3318 50.0119 33.9141C50.0119 33.7608 49.996 33.3951 49.9432 32.885C49.8629 32.1246 49.8355 31.8699 49.7833 31.5137L48.0662 31.7997C48.1243 32.2736 48.2953 33.6703 48.2953 34.1426C48.2926 34.2701 48.2067 34.3614 48.0952 34.4055C48.0177 34.439 47.7514 34.5523 47.2094 34.5429H46.924C46.2663 34.5587 46.0294 34.3945 45.8896 34.1941C45.7267 33.954 45.598 33.7304 45.3236 32.4291L43.6065 32.8862C43.7817 33.8087 43.9114 34.5727 43.9955 35.1782C44.0795 35.7837 44.1214 36.201 44.121 36.4299C44.0525 36.8519 43.6843 37.1002 43.5638 37.173C43.3827 37.2872 42.8077 37.6463 41.543 37.9155L41.9432 39.802C44.2148 39.7416 45.6373 38.6273 45.8061 36.3612C46.1209 36.7219 46.5749 36.7796 46.914 36.7727L46.9252 36.7739Z" fill="#121212"/>
<path d="M51.0403 36.8299L52.6407 36.7156V28.3711L50.8691 28.5428L51.0403 36.8299Z" fill="#121212"/>
<path d="M30.7489 43.3863L29.3255 41.4531H28.082V46.383H29.3178V43.6185L30.3066 44.9519H31.0112L31.91 43.6185V46.383H33.2582V41.4531H32.0225L30.7489 43.3863Z" fill="#121212"/>
<path d="M33.9473 42.5698H35.5655V46.383H36.9368V42.5698H38.5473V41.4531H33.9473V42.5698Z" fill="#121212"/>
<path d="M42.6824 44.1727L40.4649 41.4531H39.2363V46.383H40.4726V43.5658L42.7872 46.383H43.9187V41.4531H42.6824V44.1727Z" fill="#121212"/>
</g>
<defs>
<clipPath id="clip0_193_3285">
<rect width="56.25" height="28.125" fill="white" transform="translate(7.875 22.166)"/>
</clipPath>
</defs>
</svg>
