<svg width="298" height="223" viewBox="0 0 298 223" fill="none" xmlns="http://www.w3.org/2000/svg">
<path d="M297.225 54.8843L206.32 145.789C194.233 157.876 187.442 174.27 187.442 191.363L187.442 222.315M148.82 222.315L148.82 175.57C148.82 158.477 155.61 142.083 167.697 129.996L297.225 0.46875" stroke="url(#paint0_linear_207_3745)" stroke-width="1.32374"/>
<path d="M0.468748 54.8843L91.3737 145.789C103.461 157.876 110.251 174.27 110.251 191.363L110.251 222.315M148.874 222.315L148.874 175.57C148.874 158.477 142.083 142.083 129.996 129.996L0.46875 0.46875" stroke="url(#paint1_linear_207_3745)" stroke-width="1.32374"/>
<path d="M275.725 54.8848L184.82 145.79C172.733 157.877 165.942 174.27 165.942 191.364L165.942 222.315" stroke="url(#paint2_linear_207_3745)" stroke-width="1.32374"/>
<path d="M21.9688 54.8848L112.874 145.79C124.961 157.877 131.751 174.27 131.751 191.364L131.751 222.315" stroke="url(#paint3_linear_207_3745)" stroke-width="1.32374"/>
<defs>
<linearGradient id="paint0_linear_207_3745" x1="148.82" y1="111.392" x2="297.225" y2="111.392" gradientUnits="userSpaceOnUse">
<stop stop-color="white"/>
<stop offset="1" stop-color="white" stop-opacity="0"/>
</linearGradient>
<linearGradient id="paint1_linear_207_3745" x1="148.874" y1="111.392" x2="0.468745" y2="111.392" gradientUnits="userSpaceOnUse">
<stop stop-color="white"/>
<stop offset="1" stop-color="white" stop-opacity="0"/>
</linearGradient>
<linearGradient id="paint2_linear_207_3745" x1="165.942" y1="138.6" x2="275.725" y2="138.6" gradientUnits="userSpaceOnUse">
<stop stop-color="white"/>
<stop offset="1" stop-color="white" stop-opacity="0"/>
</linearGradient>
<linearGradient id="paint3_linear_207_3745" x1="131.751" y1="138.6" x2="21.9687" y2="138.6" gradientUnits="userSpaceOnUse">
<stop stop-color="white"/>
<stop offset="1" stop-color="white" stop-opacity="0"/>
</linearGradient>
</defs>
</svg>
