<svg width="91" height="91" viewBox="0 0 91 91" fill="none" xmlns="http://www.w3.org/2000/svg">
<g clip-path="url(#clip0_289_1388)">
<path d="M45.0452 82.5827C65.7766 82.5827 82.5827 65.7766 82.5827 45.0452C82.5827 24.3139 65.7766 7.50781 45.0452 7.50781C24.3139 7.50781 7.50781 24.3139 7.50781 45.0452C7.50781 65.7766 24.3139 82.5827 45.0452 82.5827Z" stroke="white" stroke-width="7.50749" stroke-linecap="round" stroke-linejoin="round"/>
<path d="M35.6609 33.6539C35.6609 31.8623 35.6609 30.9665 36.0353 30.4664C36.3616 30.0306 36.861 29.7579 37.404 29.7191C38.0272 29.6746 38.7807 30.159 40.2878 31.1278L58.0077 42.5192C59.3154 43.3599 59.9693 43.7802 60.1951 44.3147C60.3925 44.7818 60.3925 45.3087 60.1951 45.7758C59.9693 46.3103 59.3154 46.7306 58.0077 47.5713L40.2878 58.9627C38.7807 59.9315 38.0272 60.4159 37.404 60.3714C36.861 60.3326 36.3616 60.0599 36.0353 59.6241C35.6609 59.124 35.6609 58.2282 35.6609 56.4366V33.6539Z" stroke="white" stroke-width="7.50749" stroke-linecap="round" stroke-linejoin="round"/>
</g>
<defs>
<clipPath id="clip0_289_1388">
<rect width="90.0898" height="90.0898" fill="white"/>
</clipPath>
</defs>
</svg>
