<svg width="72" height="72" viewBox="0 0 72 72" fill="none" xmlns="http://www.w3.org/2000/svg">
<path d="M19.9038 41.6756C18.9294 41.6459 17.9595 41.82 17.0562 42.1865C16.1451 42.552 15.2534 42.9644 14.3848 43.422C13.7021 43.7889 12.9833 44.0841 12.2398 44.303C11.6355 44.5006 10.9794 44.4668 10.3987 44.2083C9.60363 43.8184 9.08829 43.215 9.05966 42.2901C9.02961 41.861 9.13672 41.4335 9.36553 41.0693C9.59434 40.7051 9.933 40.4231 10.3326 40.2639C10.7426 40.0762 11.1877 39.9774 11.6386 39.974C12.0896 39.9706 12.5361 40.0626 12.9489 40.2441C13.4841 40.4643 13.9862 40.7352 14.506 40.9775C14.9929 41.237 15.5283 41.393 16.0784 41.4356C17.004 41.4608 17.9121 41.1798 18.6617 40.6361C19.0492 40.3803 19.3644 40.0293 19.5773 39.6167C19.7902 39.204 19.8935 38.7437 19.8774 38.2797C19.8664 37.2864 19.8774 36.2976 19.8774 35.3021V35.1348H17.2346V37.9801C17.2425 38.0231 17.2425 38.0671 17.2346 38.1101C17.0518 38.5395 16.7942 38.9073 16.3251 39.0505C16.0193 39.114 15.701 39.0671 15.4265 38.9183C14.9219 38.689 14.43 38.4324 13.9532 38.1497C13.3107 37.7857 12.5969 37.5655 11.861 37.5044C11.1979 37.4787 10.5356 37.572 9.90535 37.7797C9.38423 37.9195 8.8958 38.1607 8.46802 38.4894C8.04023 38.8182 7.6815 39.2281 7.41234 39.6957C6.95665 40.4933 6.72815 41.4004 6.75165 42.3187C6.75262 43.0894 6.98679 43.8418 7.42335 44.4769C7.82849 45.0773 8.3433 45.5959 8.94074 46.0053C9.40767 46.3433 9.93938 46.5811 10.5025 46.7039C11.0657 46.8266 11.6481 46.8318 12.2134 46.7189C12.9949 46.5469 13.7503 46.2722 14.4597 45.9018C15.301 45.4878 16.107 45.0209 16.9571 44.6113C17.6917 44.2327 18.4974 44.0121 19.3224 43.9638C20.1084 43.9151 20.8851 44.1547 21.5071 44.6377C21.7203 44.8159 21.9078 45.0226 22.0643 45.2522V42.6094C22.029 42.5697 21.996 42.5279 21.9564 42.4905C21.3816 41.9311 20.6724 41.7219 19.9038 41.6756Z" fill="#121212"/>
<path d="M65.8917 37.9307C65.749 37.7252 65.5891 37.5322 65.4138 37.3537C64.8764 36.7855 64.2097 36.3554 63.4705 36.1001C62.7313 35.8447 61.9413 35.7716 61.1678 35.887C60.3795 36.0026 59.6181 36.2577 58.9192 36.6401C58.1462 37.0366 57.4129 37.5079 56.631 37.8889C55.948 38.2395 55.2071 38.4634 54.4441 38.5495C53.6543 38.6087 52.8677 38.4 52.211 37.9571C51.718 37.6485 51.2728 37.2694 50.8896 36.8317V35.1426H48.3261V42.0776C48.3357 42.1699 48.3246 42.2632 48.2938 42.3507C48.2629 42.4382 48.213 42.5178 48.1478 42.5837C48.0825 42.6496 48.0034 42.7002 47.9162 42.7319C47.829 42.7636 47.7358 42.7756 47.6434 42.767H45.8287C45.7744 42.7561 45.718 42.7631 45.668 42.7868V45.4295C46.0798 45.4295 46.4806 45.4295 46.8836 45.4295C47.3595 45.445 47.8357 45.4096 48.3041 45.3238C49.152 45.1498 49.8986 44.8129 50.4205 44.0795C50.8174 43.5783 51.0317 42.957 51.0284 42.3177C51.0064 41.6262 51.0284 40.9324 51.0284 40.2409C51.0284 40.1991 51.0086 40.1528 51.057 40.1044C51.2526 40.2759 51.4602 40.4334 51.6781 40.5757C52.4885 41.1042 53.3562 41.4258 54.3428 41.3465C55.0372 41.2801 55.7166 41.1039 56.3558 40.8245C57.122 40.4827 57.8703 40.1019 58.5977 39.6837C59.318 39.2629 60.0853 38.928 60.8837 38.6861C61.3632 38.5188 61.8814 38.4971 62.3732 38.6237C62.865 38.7503 63.3084 39.0195 63.6476 39.3974C63.9292 39.6629 64.181 39.9583 64.3986 40.2784C64.9557 39.5758 65.4997 38.8843 66.0569 38.1906C65.993 38.0937 65.949 38.01 65.8917 37.9307Z" fill="#121212"/>
<path d="M42.7766 39.4748C42.2974 39.17 41.7787 38.9322 41.235 38.7679C40.8998 38.6738 40.5762 38.5423 40.2704 38.3759C40.1981 38.3458 40.1326 38.3014 40.0779 38.2453C40.0232 38.1892 39.9805 38.1226 39.9523 38.0495C39.9241 37.9764 39.911 37.8984 39.9138 37.8201C39.9166 37.7418 39.9353 37.6649 39.9687 37.5941C40.2352 36.6801 40.8364 36.244 41.79 36.2727C42.2212 36.301 42.6439 36.4054 43.0387 36.581C43.1973 36.6471 43.3492 36.7219 43.5144 36.8012V34.1585C43.3911 34.1144 43.2722 34.0682 43.151 34.0307C42.8557 33.9389 42.5528 33.8733 42.2459 33.8347C41.3549 33.7032 40.4451 33.8574 39.6472 34.2752C39.0314 34.5694 38.517 35.0401 38.1694 35.6274C37.8381 36.2444 37.6196 36.9157 37.5241 37.6095C37.4521 38.057 37.4641 38.5141 37.5594 38.9573C37.7312 39.7193 38.2201 40.1884 38.927 40.4791C39.3815 40.65 39.8446 40.7971 40.3145 40.9195C40.6282 40.994 40.9263 41.1229 41.1954 41.3005C41.3039 41.3711 41.3911 41.4699 41.4477 41.5863C41.5044 41.7027 41.5283 41.8323 41.5169 41.9612C41.4553 42.6219 41.1624 43.1174 40.5193 43.3641C40.3755 43.4184 40.2284 43.4633 40.0788 43.4984C39.7116 43.609 39.3265 43.6479 38.9446 43.613C38.38 43.5126 37.8579 43.2466 37.4449 42.8488C37.1669 42.6091 36.9179 42.3378 36.7027 42.0405H34.104C34.0903 42.0752 34.0903 42.1137 34.104 42.1484C34.4072 43.093 34.9426 43.9463 35.661 44.6304C36.5657 45.4784 37.7415 45.9786 38.9799 46.0421C40.1625 46.1258 41.2482 45.8791 42.16 45.0555C42.8066 44.5165 43.3352 43.85 43.7126 43.0976C44.3337 41.7454 43.9571 40.2897 42.7766 39.4748Z" fill="#121212"/>
<path d="M33.1422 35.2266H30.68V35.3345C30.6932 36.1647 30.7042 36.995 30.724 37.8253C30.7388 38.1098 30.6532 38.3905 30.4821 38.6183C30.3111 38.8461 30.0654 39.0066 29.7881 39.0718C29.5713 39.1198 29.348 39.1317 29.1274 39.107C28.8045 39.074 28.505 38.9234 28.2861 38.6837C28.0671 38.4441 27.9441 38.1322 27.9403 37.8077V35.3851C27.9403 35.3345 27.9602 35.2772 27.9205 35.2288H25.335V35.3873C25.335 37.5984 25.335 39.8096 25.335 42.0207C25.3402 42.1345 25.3111 42.2473 25.2513 42.3444C25.1752 42.463 25.0707 42.5608 24.9472 42.6288C24.8238 42.6969 24.6853 42.7331 24.5444 42.7342C23.9982 42.7342 23.4432 42.7342 22.9081 42.7342C22.8552 42.7342 22.8002 42.7166 22.7539 42.7518V45.3263H22.8442H25.1236C25.1774 45.3263 25.2312 45.3219 25.2844 45.3131C25.7708 45.2518 26.2361 45.0777 26.6433 44.8047C27.0506 44.5317 27.3884 44.1673 27.6298 43.7407C27.932 43.2999 28.082 42.7725 28.0571 42.2387C28.0372 42.0185 28.0571 41.7784 28.0571 41.5472C28.0571 41.5097 28.0416 41.4679 28.0879 41.4283L28.2971 41.4503C29.1073 41.5467 29.9274 41.523 30.7307 41.3798C31.4102 41.2365 32.0205 40.8658 32.461 40.3289C32.9014 39.792 33.1456 39.1209 33.1532 38.4265V35.2266H33.1422Z" fill="#121212"/>
<path d="M35.7642 29.4443C34.4054 27.286 32.518 25.9646 29.9215 25.6915V24.423C29.0699 24.3917 28.2178 24.4657 27.3844 24.6432C26.4418 24.8155 25.5396 25.1621 24.724 25.6651C23.8271 26.2629 23.0552 27.0296 22.4512 27.9225C21.8675 28.7166 21.4591 29.6256 21.2532 30.5895C21.1998 30.8055 21.1761 31.0277 21.1827 31.2501H24.0215C24.2606 30.4588 24.633 29.714 25.1226 29.0478C25.5913 28.3646 26.2175 27.8041 26.9484 27.4137C27.5405 27.123 28.1857 26.9559 28.8445 26.9226C29.0648 26.9072 29.2718 26.9226 29.5052 26.9226V28.0832C29.5509 28.1096 29.6023 28.1247 29.655 28.1273C30.4861 28.2475 31.2655 28.6028 31.9013 29.1513C32.6947 29.8611 33.3148 30.7433 33.7138 31.7302C33.8063 31.9505 33.8834 32.1707 33.9627 32.3909H36.8037C36.7159 31.3358 36.3579 30.3209 35.7642 29.4443ZM28.6573 25.9338C28.4657 25.9514 28.2719 25.9624 28.0803 25.9888C26.2811 26.2465 24.8099 27.0437 23.7902 28.5876C23.4652 29.0811 23.2462 29.6368 23.1472 30.2195C23.1472 30.2723 23.123 30.323 23.1097 30.3802H22.7464C22.7865 30.0083 22.8776 29.6437 23.0172 29.2967C23.535 27.9914 24.5215 26.9264 25.7833 26.3104C26.6495 25.8636 27.6022 25.6097 28.5759 25.566H28.6573V25.9338ZM34.7842 31.1202C34.1235 28.9289 32.5554 27.7595 30.417 27.2089V26.8455C31.4287 27.0362 32.3797 27.4675 33.1897 28.103C34.1721 28.8455 34.8683 29.9042 35.1607 31.1004C35.0371 31.1274 34.9099 31.1341 34.7842 31.1202Z" fill="#121212"/>
<path d="M23.8855 31.7461H21.3066V41.2292H23.8855V31.7461Z" fill="#121212"/>
<path d="M47.229 31.7422H44.6523V41.2231H47.229V31.7422Z" fill="#121212"/>
<path d="M36.7015 41.2273V32.8145H34.1094V41.2273H36.7015Z" fill="#121212"/>
<path d="M30.4881 44.0928H28.3145V46.3435H30.563V44.3108H32.7411V42.0645H30.4881V44.0928Z" fill="#121212"/>
<path d="M19.8732 32.1055H17.2305V34.3937H19.8732V32.1055Z" fill="#121212"/>
</svg>
