<svg width="72" height="72" viewBox="0 0 72 72" fill="none" xmlns="http://www.w3.org/2000/svg">
<path d="M64.2843 45.1379H63.4566C63.2571 45.1379 63.0976 45.2973 63.0976 45.4966V46.7021H64.6932V45.7407V44.9287C64.5885 45.103 64.4638 45.1279 64.2843 45.1379ZM62.2798 45.1379H61.4521C61.2526 45.1379 61.093 45.2973 61.093 45.4966V46.7021H62.6887V45.7407V44.9287C62.584 45.103 62.4593 45.1279 62.2798 45.1379ZM60.2753 45.1379H59.4475C59.2481 45.1379 59.0885 45.2973 59.0885 45.4966V46.7021H60.6842V45.7407V44.9287C60.5795 45.103 60.4548 45.1279 60.2753 45.1379ZM46.0741 47.3497C46.473 47.3497 46.842 47.27 47.1212 47.0308C47.4104 46.7868 47.565 46.4381 47.565 46.0694V43.3097V43.23C47.565 42.8963 47.8143 42.6123 48.1384 42.5625C48.1733 42.5575 48.2083 42.5526 48.2382 42.5526H48.682C48.8515 42.5426 48.9712 42.5227 49.0709 42.3533V46.0545C49.046 46.7369 48.8565 47.3646 48.4526 47.8528C47.919 48.5402 47.1112 48.8491 46.1638 48.8491H45.9744V49.0782C45.9494 49.7606 45.7599 50.3883 45.356 50.8765C44.8225 51.5639 44.0147 51.8728 43.0673 51.8728H41.0279C41.1924 51.7731 41.2174 51.6586 41.2273 51.4842V51.0409C41.2273 51.006 41.2323 50.9711 41.2373 50.9412C41.2872 50.6174 41.5714 50.3684 41.9055 50.3684H41.9853H42.9825C43.3814 50.3684 43.7504 50.2887 44.0297 50.0496C44.3189 49.8055 44.4735 49.4568 44.4735 49.0882V48.8441C44.0795 48.8441 43.6906 48.8341 43.2967 48.8341C43.0823 48.8341 42.8978 48.8092 42.7332 48.7544C41.8506 48.4555 41.6312 47.4891 41.6312 46.717C41.6312 46.1541 41.8606 45.6908 42.2296 45.3372C42.5986 44.9885 43.0823 44.8091 43.6607 44.8091C44.1294 44.8091 44.5632 44.9287 44.9521 45.1728C45.5854 45.5563 45.9295 46.199 45.9744 47.0856V47.3397H46.0691L46.0741 47.3497ZM44.4685 47.3198C44.4635 47.1952 44.4535 47.0707 44.4385 46.9462C44.4136 46.7569 44.3687 46.6523 44.2192 46.5128C43.9399 46.2687 43.3166 46.2388 43.172 46.5825C43.0922 46.7718 43.157 47.1454 43.2418 47.3198L44.4735 47.3148L44.4685 47.3198ZM39.3076 48.8889V43.4193V43.0806V43.0009C39.3076 42.6671 39.5569 42.3832 39.881 42.3334C39.9159 42.3284 39.9508 42.3234 39.9807 42.3234H40.4245C40.5941 42.3135 40.7137 42.2935 40.8135 42.1242V44.1217V48.8889H39.3076ZM35.493 51.9425H34.2165H33.8924H33.648H33.4486C33.6131 51.8429 33.6381 51.7283 33.648 51.554V51.1106C33.648 51.0757 33.653 51.0409 33.658 51.011C33.7079 50.6872 33.9921 50.4381 34.3262 50.4381H34.406H35.1539H35.3982C35.7972 50.4381 36.1662 50.3584 36.4454 50.1193C36.7346 49.8752 36.8892 49.5265 36.8892 49.1579V46.7369V46.3982V46.3185C36.8892 45.9848 37.1385 45.7008 37.4626 45.651C37.4975 45.646 37.5324 45.641 37.5623 45.641H38.0061C38.1757 45.6311 38.2953 45.6111 38.3951 45.4418V47.4393V49.143C38.3701 49.8254 38.1806 50.4531 37.7768 50.9412C37.2432 51.6287 36.4354 51.9375 35.488 51.9375L35.493 51.9425ZM38.1059 42.2786H37.2781C37.0787 42.2786 36.9191 42.438 36.9191 42.6373V43.8427H38.5147V42.8813V42.0694C38.41 42.2437 38.2854 42.2686 38.1059 42.2786ZM29.25 50.1044V51.1355V51.4593V51.7034V51.9026C29.3498 51.7383 29.4645 51.7134 29.639 51.7034H30.0828C30.1177 51.7034 30.1526 51.6984 30.1825 51.6934C30.5066 51.6436 30.7559 51.3597 30.7559 51.0259V50.9462V50.4381V50.194C30.7559 49.7955 30.8357 49.4269 31.0751 49.1479C31.2745 48.9088 31.5538 48.7644 31.8479 48.7195L33.4386 48.7146H34.2813C34.4957 48.7146 34.6802 48.6897 34.8448 48.6349C35.503 48.4107 35.7972 47.8129 35.9019 47.2002L35.9168 46.9661C35.9368 46.0794 35.6426 45.4368 35.0392 45.0532C34.6702 44.8141 34.2414 44.6896 33.7727 44.6896C33.1893 44.6896 32.6956 44.8689 32.2967 45.2176C31.8978 45.5713 31.6335 46.0346 31.5936 46.5975V47.245C31.09 47.3247 30.6263 47.5091 30.2473 47.8179C29.5592 48.3509 29.25 49.1579 29.25 50.1044ZM23.5805 46.463V43.4143V43.0756V42.9959C23.5805 42.6622 23.3312 42.3782 23.0071 42.3284C22.9722 42.3234 22.9373 42.3184 22.9074 42.3184H22.4636C22.294 42.3085 22.1744 42.2886 22.0746 42.1192V44.1167V46.4281C22.0746 47.793 22.9223 48.8839 24.3534 48.8839H27.1657C27.1807 48.8839 27.1957 48.8839 27.2106 48.8839C28.4024 48.8839 29.3747 47.9125 29.3747 46.722C29.3747 45.5713 28.4672 44.6298 27.3353 44.565V44.5601H27.2156H25.8593H25.5202H25.4405C25.1064 44.5601 24.8221 44.8091 24.7723 45.1329C24.7673 45.1678 24.7623 45.2027 24.7623 45.2326V45.6759C24.7523 45.8453 24.7324 45.9648 24.5629 46.0645H26.5624H27.2256C27.5746 46.0794 27.8588 46.3683 27.8588 46.722C27.8588 47.0807 27.5696 47.3746 27.2156 47.3845H27.1957H27.1657V47.3795H24.3185C23.7999 47.3795 23.5805 46.976 23.5805 46.463ZM27.2106 42.2636H26.3829C26.1834 42.2636 26.0239 42.4231 26.0239 42.6223V43.8278H27.6195V42.8664V42.0544C27.5148 42.2288 27.3901 42.2537 27.2106 42.2636ZM19.8108 45.2077V46.7071H19.8058L19.8108 46.7469C19.736 47.1604 19.3571 47.4841 18.9233 47.4642C18.5393 47.4493 18.1653 47.1902 18.0905 46.7469C18.0806 46.6921 18.0756 46.6373 18.0756 46.5775C18.0457 45.3471 17.198 44.316 15.9215 44.306H14.7995L16.3104 42.8116L16.5497 42.5725L16.6046 42.5177C16.8439 42.2786 16.8639 41.905 16.6744 41.641C16.6545 41.6111 16.6345 41.5862 16.6096 41.5613L16.2954 41.2474C16.1807 41.1229 16.1159 41.0233 16.1608 40.834L12.3113 44.6497L13.2687 45.8104H15.2682H15.9314C16.3004 45.8253 16.6196 46.2139 16.6345 46.6174C16.6445 46.996 16.3752 47.3945 15.9215 47.4044H15.9015H15.8716V47.3995H13.0593C13.0194 47.3945 12.9795 47.3895 12.9396 47.3895V47.3845H12.8199H11.9473H11.6082H11.5285C11.1944 47.3845 10.9101 47.6336 10.8603 47.9574C10.8553 47.9923 10.8503 48.0271 10.8503 48.057V48.5004C10.8403 48.6697 10.8204 48.7893 10.6509 48.8889H12.1667H12.8299C13.1789 48.9038 13.4632 49.1928 13.4632 49.5514C13.4632 49.9101 13.174 50.204 12.8199 50.214H12.8H12.7701V50.209H9.20481C8.68622 50.209 8.46682 49.8055 8.46682 49.2924V48.7245V48.3858V48.3061C8.46682 47.9723 8.2175 47.6884 7.89339 47.6386C7.85849 47.6336 7.82358 47.6286 7.79366 47.6286H7.34987C7.18034 47.6186 7.06067 47.5987 6.96094 47.4294V49.2575C6.96094 50.6224 7.80862 51.7134 9.23971 51.7134H12.7701C12.785 51.7134 12.8 51.7134 12.8149 51.7134C14.0067 51.7134 14.979 50.742 14.979 49.5514C14.979 49.3273 14.9441 49.1131 14.8793 48.9088H15.8716C15.8716 48.8939 15.9015 48.9088 15.9165 48.9088C16.5148 48.9088 17.0534 48.6598 17.4473 48.2662C17.8562 48.6548 18.4097 48.8889 19.018 48.8889C20.2297 48.8889 21.227 47.9424 21.3067 46.7519H21.3117V46.5975V44.3409C21.212 44.5053 21.0973 44.5302 20.9228 44.5401H20.479C20.4441 44.5401 20.4092 44.5451 20.3793 44.5501C20.0552 44.5999 19.8058 44.8839 19.8058 45.2176L19.8108 45.2077ZM19.4069 42.2636H18.5792C18.3797 42.2636 18.2202 42.4231 18.2202 42.6223V43.8278H19.8158V42.8664V42.0544C19.7111 42.2288 19.5864 42.2537 19.4069 42.2636ZM33.1045 47.2052C33.1045 47.0807 33.0945 46.9561 33.0945 46.8266C33.0945 46.6373 33.1245 46.5178 33.2691 46.3783C33.5433 46.1192 34.2364 46.1192 34.3611 46.5377C34.4159 46.7419 34.4309 47.0059 34.3312 47.2002H33.1095L33.1045 47.2052ZM12.0121 44.3359L13.7424 42.6273L13.882 42.4878L13.9119 42.4579C14.0466 42.3234 14.0615 42.1092 13.9518 41.9598C13.9419 41.9448 13.9269 41.9299 13.9169 41.9149L13.7374 41.7356C13.6726 41.6609 13.6327 41.6061 13.6626 41.5015L11.4686 43.6734L12.0171 44.3359H12.0121ZM55.3039 47.2799C55.3039 47.1554 55.2939 47.0308 55.2939 46.9013C55.2939 46.712 55.3138 46.3633 55.3537 46.2039C55.4834 45.6659 55.8923 45.636 56.1715 45.6659C56.5255 45.7008 56.6203 46.0943 56.4408 46.5028C56.2463 46.9462 55.8374 47.2002 55.3089 47.2799H55.3039ZM52.7808 48.6199C53.0002 48.7395 53.1747 48.8092 53.4838 48.8241C53.5886 48.8241 53.783 48.8241 53.8827 48.8241L53.9775 49.7208C54.0623 50.5377 54.536 51.5191 56.2912 51.5191C57.7921 51.5191 58.1062 50.742 58.1062 50.0844C58.1062 49.5863 57.9716 49.1679 57.7023 48.8241C59.8315 48.8241 61.9607 48.8241 64.0899 48.8241C64.4838 48.8241 64.8478 48.5801 64.8478 48.1517V47.7083C64.8578 47.5389 64.8777 47.4194 65.0472 47.3198H58.3306H57.6275C57.8818 46.981 58.0065 46.5825 58.0065 46.1342C58.0065 45.5563 57.807 45.0881 57.4181 44.7444C57.0491 44.4206 56.5604 44.2612 55.9621 44.2612C54.5011 44.2612 53.7282 45.0084 53.7282 46.4181C53.7282 46.443 53.7282 46.5128 53.793 47.3247H53.7631H53.5088C52.7209 47.3098 52.7957 47.0607 52.7808 46.9113V44.9287C52.681 45.0931 52.5663 45.118 52.3918 45.128H51.948C51.584 45.128 51.2749 45.4418 51.2749 45.8054V48.6448C51.2749 49.0134 51.1203 49.3621 50.8311 49.6062C50.5469 49.8453 50.1779 49.925 49.7839 49.925H48.7867C48.3927 49.925 48.0287 50.1691 48.0287 50.5975V51.0409C48.0188 51.2102 47.9988 51.3298 47.8293 51.4294H49.8687C50.8161 51.4294 51.6239 51.1206 52.1575 50.4331C52.5614 49.945 52.7508 49.3173 52.7758 48.6349L52.7808 48.6199ZM55.3737 48.8341C55.8873 48.8989 56.351 49.0832 56.6103 49.4369C56.7748 49.661 56.8048 49.94 56.6751 50.1044C56.5904 50.209 56.4258 50.2438 56.2164 50.2488C55.8823 50.2538 55.6679 50.0894 55.5482 49.7905C55.4535 49.5464 55.3537 49.143 55.3737 48.8391V48.8341Z" fill="#121212"/>
<path d="M29.3059 30.0182C28.8989 30.4248 28.2681 30.5532 27.8207 30.1062L27.3589 29.6449C27.1732 29.4784 27.0281 29.3785 26.752 29.4475L35.9989 20.1836L44.8175 28.9933L45.2721 29.4475C44.996 29.3785 44.8508 29.476 44.6652 29.6449L44.2034 30.1062C43.7559 30.5532 43.1252 30.4272 42.7182 30.0182C42.6325 29.9326 42.5444 29.8446 42.4587 29.759L36.0037 23.3104L29.313 30.0206L29.3059 30.0182Z" fill="#121212"/>
<path d="M42.7194 32.5192L43.3763 32.7309C43.6334 32.7998 43.8166 32.8212 44.0428 32.6239C43.9737 32.8949 43.8999 33.1589 43.8047 33.4204C42.6504 36.6067 39.5894 38.8941 36.0097 38.8941C32.4251 38.8941 29.3594 36.5995 28.2098 33.4062C28.117 33.147 28.0456 32.8878 27.9766 32.6239C28.2027 32.8212 28.386 32.7974 28.643 32.7309L29.2999 32.5192C29.7498 32.3742 30.3686 32.5692 30.5686 33.0233C31.4968 35.1039 33.589 36.5639 36.0097 36.5639C38.4232 36.5639 40.5106 35.1158 41.4412 33.0447C41.6507 32.5811 42.2481 32.3671 42.7194 32.5192Z" fill="#121212"/>
<path d="M40.3418 21.4572C40.3418 20.8817 40.7107 20.3467 41.3439 20.3467H41.9984C42.2483 20.3325 42.4221 20.3016 42.5673 20.0566L42.5696 25.1927L40.3442 22.9623V21.4548L40.3418 21.4572Z" fill="#121212"/>
</svg>
