<svg width="72" height="72" viewBox="0 0 72 72" fill="none" xmlns="http://www.w3.org/2000/svg">
<g clip-path="url(#clip0_193_3308)">
<path d="M13.1211 47.3734C13.2955 46.639 13.841 46.4313 14.508 46.3824C14.7129 46.3667 14.9141 46.3057 15.1378 46.2617V46.4838C15.1378 47.9562 15.1356 49.4286 15.1378 50.901C15.1343 51.1102 15.1528 51.3192 15.1929 51.5246C15.3274 52.1441 15.7084 52.5147 16.3436 52.5779C16.9954 52.6425 17.6534 52.6466 18.3088 52.6677C18.5398 52.683 18.7717 52.6775 19.0018 52.6511C19.9279 52.5138 20.4218 51.927 20.4254 50.9705C20.4295 49.8866 20.442 48.8027 20.4209 47.7193C20.4039 46.8517 20.8508 46.4995 21.6429 46.395C21.8988 46.3609 22.153 46.316 22.4314 46.2725V46.4829C22.4314 47.2079 22.4502 47.9333 22.4256 48.6574C22.4063 49.2263 22.8379 49.4829 23.2472 49.4802C23.7923 49.4766 24.3374 49.4802 24.8824 49.4802H30.4776C30.4556 49.6098 30.4296 49.7211 30.4189 49.8341C30.4032 49.997 30.4166 50.1648 30.3866 50.3245C30.2678 50.9526 29.9119 51.2599 29.2713 51.2635C27.882 51.2709 26.4924 51.2709 25.1025 51.2635C24.4158 51.2608 23.7291 51.2491 23.0437 51.2186C22.8321 51.2101 22.6237 51.1316 22.4004 51.084C22.3507 51.337 22.3148 51.6156 22.2391 51.8821C21.9253 52.9871 21.3058 53.8561 20.213 54.2922C19.81 54.4456 19.3843 54.5311 18.9534 54.5452C18.0362 54.5824 17.1155 54.5716 16.1979 54.5533C15.0473 54.5304 14.265 53.9001 13.698 52.9548C13.4039 52.4601 13.2222 51.9067 13.1659 51.3339C13.1555 51.2836 13.1405 51.2343 13.1211 51.1868V47.3734Z" fill="#121212"/>
<path d="M58.4401 49.3018C58.4132 49.5521 58.3895 49.7832 58.363 50.0146C58.3455 50.1699 58.3424 50.3287 58.3029 50.479C58.1783 50.9554 57.8493 51.2228 57.3571 51.2627C57.2455 51.2712 57.133 51.2699 57.0209 51.2699H49.3522C49.4866 51.5839 49.626 51.872 49.7251 52.1716C50.051 53.1618 49.7036 54.0406 48.8286 54.4327C48.2459 54.6956 47.6183 54.7589 46.9907 54.7046C46.6714 54.6811 46.3567 54.6138 46.0557 54.5045C45.135 54.1537 44.7616 53.3829 44.6065 52.4781C44.5401 52.0904 44.5217 51.6943 44.4823 51.308L43.0994 51.0734C42.9354 51.5844 42.8264 52.1268 42.5938 52.6091C41.9774 53.8863 40.9352 54.5512 39.5062 54.561C38.633 54.5673 37.758 54.561 36.9364 54.561C36.9364 54.3062 36.913 54.0644 36.9431 53.8293C36.9684 53.5789 37.0305 53.3335 37.1273 53.1012C37.2618 52.81 37.5146 52.6647 37.8512 52.6696C38.3892 52.6772 38.9271 52.6786 39.465 52.6696C40.2333 52.6535 40.7748 52.2412 40.981 51.5099C41.0312 51.3148 41.0553 51.1138 41.0527 50.9123C41.0594 49.8509 41.0558 48.7894 41.0558 47.7271C41.0558 46.9124 41.4207 46.5037 42.2298 46.4018C42.5077 46.3669 42.7839 46.3188 43.0681 46.2753V48.6243C43.0681 49.0416 43.1819 49.1824 43.5907 49.2677C43.6638 49.2834 43.7377 49.2945 43.8122 49.3009C43.974 49.3134 44.1367 49.3211 44.3164 49.3314C44.2842 48.9868 44.2389 48.6584 44.2241 48.3251C44.1972 47.7213 44.2743 47.1318 44.5482 46.5826C44.8588 45.9599 45.373 45.5835 46.0378 45.4297C46.8477 45.2417 47.6551 45.2695 48.4323 45.5889C49.146 45.8828 49.4978 46.4494 49.5669 47.2009C49.6229 47.806 49.5041 48.3902 49.3096 48.9608C49.2742 49.0649 49.2392 49.169 49.1944 49.3018H58.4401ZM46.2529 51.038C46.2529 51.3426 46.2354 51.5853 46.2565 51.8249C46.3013 52.3183 46.5559 52.6943 46.9786 52.9464C47.3848 53.1896 47.7671 53.0406 47.92 52.5925C48.0509 52.2098 47.9016 51.8347 47.4605 51.5893C47.0974 51.3888 46.7057 51.2425 46.2529 51.038ZM46.2368 49.2403C46.2612 49.2479 46.2865 49.2522 46.3121 49.2533C46.4062 49.2291 46.5008 49.2085 46.5922 49.1762C47.175 48.9743 47.5865 48.6082 47.703 47.9761C47.8043 47.4283 47.4502 47.0811 46.9065 47.1923C46.6537 47.2439 46.4851 47.4072 46.3816 47.6383C46.1458 48.16 46.2659 48.7096 46.235 49.2403H46.2368Z" fill="#121212"/>
<path d="M26.0878 26.3359C26.1994 26.7334 26.4679 27.0237 26.7638 27.2857C27.3958 27.8447 28.1596 28.1031 28.98 28.2152C30.3655 28.4046 31.721 28.1991 33.0524 27.8393C33.9287 27.602 34.7849 27.2902 35.65 27.012C35.7199 26.9896 35.7899 26.9672 35.8741 26.9416C35.8898 27.2915 35.9042 27.6257 35.919 27.9595C36.0286 30.3567 36.1383 32.7537 36.248 35.1506C36.2713 35.6584 36.2735 36.1685 36.3278 36.6728C36.4622 37.9289 35.3497 38.3138 34.5025 38.0406C34.0807 37.906 33.7628 37.6369 33.4984 37.2883C31.9349 35.2315 30.3697 33.1756 28.8029 31.1205C28.1691 30.2888 27.5307 29.4606 26.9045 28.623C26.4723 28.0572 26.1825 27.3955 26.0596 26.6939C26.0407 26.5831 26.0815 26.4625 26.095 26.3463L26.0878 26.3359Z" fill="#121212"/>
<path d="M45.7559 27.3962C45.3144 26.4585 44.5214 25.9673 43.568 25.6972C42.437 25.3769 41.2913 25.4424 40.1491 25.6286C38.7747 25.8529 37.4519 26.2625 36.1556 26.764C36.1009 26.7851 36.0435 26.7986 35.9588 26.8246C35.9431 26.4846 35.9283 26.1611 35.914 25.8376C35.8013 23.4118 35.6901 20.9853 35.5805 18.5582C35.5567 18.0432 35.5469 17.5264 35.5025 17.0136C35.4128 15.958 36.2833 15.5228 37.1001 15.6677C37.5625 15.7463 37.9766 16.0011 38.2552 16.3788C40.4765 19.2972 42.6973 22.2145 44.9177 25.1306C45.3643 25.7061 45.6589 26.385 45.7743 27.1046C45.7913 27.2136 45.7604 27.3289 45.7519 27.4428C45.7528 27.4267 45.7559 27.4114 45.7559 27.3962Z" fill="#121212"/>
<path d="M33.7177 51.0438C33.5832 51.5126 33.4868 51.9751 33.3165 52.408C32.7866 53.7539 31.5956 54.5525 30.1536 54.5614C29.2727 54.5655 28.3919 54.5614 27.5635 54.5614C27.5635 54.2923 27.5505 54.037 27.5667 53.7844C27.5913 53.3946 27.6787 53.0191 28.0382 52.7943C28.1662 52.7207 28.3107 52.6807 28.4583 52.6781C28.9437 52.6642 29.4292 52.6736 29.9151 52.6723C31.055 52.6691 31.6844 52.0343 31.6853 50.8863C31.6853 49.8395 31.6853 48.7927 31.6853 47.7459C31.6853 46.8841 32.0658 46.4754 32.9274 46.3937C33.1766 46.37 33.4231 46.317 33.6952 46.2735V48.6328C33.6952 49.0366 33.8086 49.1811 34.2063 49.2636C34.3672 49.2963 34.531 49.313 34.6953 49.3134C35.7039 49.3182 36.7125 49.3182 37.721 49.3134C38.0227 49.3134 38.1428 49.1837 38.1339 48.8711C38.0568 48.867 37.977 48.8603 37.8976 48.8598C37.487 48.8598 37.0755 48.8441 36.6654 48.8621C35.8585 48.8971 35.3332 48.4915 35.0068 47.8015C34.6308 47.0097 34.5985 46.2013 35.0068 45.4068C35.3076 44.8235 35.8137 44.4978 36.4413 44.365C37.2064 44.2031 37.9729 44.182 38.6915 44.5499C39.5073 44.9671 39.9695 45.6907 40.0663 46.5602C40.1711 47.5031 40.1843 48.454 40.1058 49.3995C40.0372 50.2142 39.4405 50.7351 38.7117 51.0464C38.4079 51.1678 38.0844 51.2317 37.7573 51.2349C36.7712 51.2595 35.785 51.2555 34.7988 51.2398C34.5196 51.2353 34.2417 51.1546 33.9633 51.1052C33.8714 51.0886 33.78 51.0595 33.7177 51.0438ZM38.0012 46.9994C37.9734 46.3323 37.2306 46.0218 36.7609 46.278C36.5878 46.3722 36.5219 46.5422 36.5816 46.7172C36.6192 46.8262 36.734 46.9796 36.8241 46.9864C37.2087 47.0164 37.5978 46.9994 38.0012 46.9994Z" fill="#121212"/>
<path d="M45.7602 27.3967C45.7602 27.4115 45.7602 27.4267 45.758 27.4415C45.9095 27.7376 45.8082 28.0301 45.7226 28.3114C45.4985 29.0503 45.0386 29.6492 44.5325 30.2123C43.3616 31.5155 41.9738 32.5631 40.5358 33.5451C39.8401 34.0202 39.1166 34.4545 38.4053 34.9063C38.3443 34.9444 38.278 34.9744 38.1861 35.0229C38.0516 32.245 37.9211 29.5012 37.7871 26.7031C38.6088 26.5053 39.4188 26.2702 40.2445 26.1248C40.9273 26.007 41.6189 25.947 42.3118 25.9454C43.1052 25.9422 43.8977 26.0692 44.5979 26.4743C44.9597 26.6834 45.2654 26.9893 45.5953 27.2527C45.6504 27.2975 45.7038 27.3487 45.7602 27.3967Z" fill="#121212"/>
<path d="M26.0952 26.3428C25.9226 26.0611 26.023 25.7717 26.0983 25.4976C26.2516 24.9418 26.5631 24.4658 26.915 24.0171C27.6569 23.0683 28.5552 22.2814 29.4943 21.5389C30.744 20.552 32.0668 19.6699 33.434 18.8534C33.4905 18.8198 33.5497 18.7902 33.6384 18.7422C33.6563 18.9759 33.6783 19.1868 33.6886 19.3985C33.7908 21.4957 33.892 23.5935 33.9921 25.6919C34.0109 26.0876 34.0302 26.4833 34.0369 26.8794C34.0369 26.9386 33.9759 27.036 33.9231 27.053C32.2865 27.5815 30.6243 27.9579 28.8882 27.7735C27.7752 27.6551 26.7917 27.2612 26.0875 26.3348C26.088 26.3348 26.0952 26.3428 26.0952 26.3428Z" fill="#121212"/>
<path d="M26.042 48.5489C26.042 48.0375 26.0276 47.5395 26.0482 47.0424C26.0586 46.7957 26.3046 46.6019 26.5776 46.5839C26.7856 46.57 26.9959 46.5893 27.2029 46.5727C27.4719 46.5512 27.7377 46.5081 28.0219 46.4727C28.0293 46.5113 28.0333 46.5504 28.034 46.5897C28.034 47.173 28.0295 47.753 28.0376 48.3345C28.0398 48.5018 28.0031 48.5727 27.8162 48.5677C27.2948 48.5552 26.7731 48.5637 26.2517 48.5624C26.1863 48.5624 26.1209 48.5543 26.042 48.5489Z" fill="#121212"/>
<path d="M25.5663 46.4766C25.5663 47.0997 25.5663 47.7632 25.5614 48.4267C25.5614 48.4716 25.4933 48.5537 25.456 48.5542C24.8316 48.5622 24.2072 48.56 23.5675 48.56C23.5675 48.0396 23.5528 47.5479 23.5738 47.058C23.5846 46.8036 23.8222 46.6058 24.0916 46.5833C24.2839 46.5672 24.4797 46.586 24.6743 46.5712C24.9621 46.551 25.2507 46.5111 25.5663 46.4766Z" fill="#121212"/>
<path d="M58.2149 46.4844V48.5454H56.2153C56.2153 48.068 56.1978 47.5983 56.2211 47.1304C56.2372 46.8034 56.4901 46.5947 56.8213 46.5799C56.9778 46.5728 57.1351 46.5876 57.2915 46.5754C57.5964 46.5517 57.9016 46.5158 58.2149 46.4844Z" fill="#121212"/>
<path d="M30.4782 46.4199C30.4782 46.7241 30.4782 47.0197 30.4782 47.3172C30.4782 47.6761 30.4755 48.035 30.4782 48.3939C30.4782 48.4957 30.4598 48.5657 30.333 48.5648C29.7364 48.5603 29.1397 48.5612 28.5431 48.559C28.5163 48.5526 28.4905 48.5425 28.4664 48.5289C28.4664 48.0574 28.4454 47.581 28.4741 47.1072C28.4933 46.7887 28.743 46.594 29.068 46.5787C29.2168 46.5716 29.3665 46.5787 29.5163 46.576C29.6803 46.576 29.8471 46.5904 30.0093 46.5662C30.1559 46.5406 30.3003 46.476 30.4782 46.4199Z" fill="#121212"/>
<path d="M53.2859 46.3984V48.5518C53.2012 48.5563 53.129 48.564 53.0564 48.564C52.5342 48.564 52.0115 48.564 51.4875 48.5667C51.353 48.5667 51.2813 48.542 51.2853 48.3841C51.2943 47.9888 51.2817 47.5927 51.2916 47.197C51.3015 46.8184 51.5363 46.5927 51.9147 46.5788C52.0187 46.5747 52.1236 46.5788 52.2284 46.5788C52.5853 46.5743 52.9475 46.6313 53.2859 46.3984Z" fill="#121212"/>
<path d="M38.2571 41.2109V43.3608H36.2668C36.2668 42.8614 36.2462 42.3639 36.2754 41.8686C36.2911 41.6035 36.5551 41.4142 36.8263 41.4007C36.9607 41.394 37.0952 41.4007 37.2297 41.3976C37.5762 41.3931 37.9308 41.4424 38.2571 41.2109Z" fill="#121212"/>
<path d="M55.7465 46.4844C55.7528 46.5227 55.7562 46.5613 55.7568 46.6001C55.7568 47.1833 55.7546 47.7666 55.76 48.3498C55.76 48.4969 55.7277 48.5665 55.5618 48.5638C55.0239 48.5552 54.486 48.5566 53.9481 48.5638C53.8024 48.5638 53.7513 48.5189 53.754 48.3709C53.7612 47.9747 53.7513 47.5786 53.758 47.1824C53.7643 46.8267 53.9907 46.5956 54.3435 46.5768C54.5004 46.5687 54.6572 46.5831 54.8141 46.5714C55.1198 46.5499 55.4273 46.5149 55.7465 46.4844Z" fill="#121212"/>
</g>
<defs>
<clipPath id="clip0_193_3308">
<rect width="45.3131" height="45.3131" fill="white" transform="translate(13.127 13.2969)"/>
</clipPath>
</defs>
</svg>
