<svg width="98" height="98" viewBox="0 0 98 98" fill="none" xmlns="http://www.w3.org/2000/svg">
<path d="M42.875 20.416H42.4667C33.2798 20.416 28.6864 20.416 25.4663 22.7556C24.4263 23.5111 23.5118 24.4257 22.7562 25.4656C20.4167 28.6857 20.4167 33.2792 20.4167 42.466V44.916H42.875M42.875 20.416H46.55C52.8626 20.416 56.0189 20.416 58.6356 21.7465C59.4927 22.1823 60.2955 22.7175 61.0274 23.3411C63.262 25.2447 64.4759 28.1582 66.9038 33.9852L71.4583 44.916H42.875M42.875 20.416V44.916M36.75 69.416C36.75 73.9263 33.0937 77.5827 28.5833 77.5827C24.073 77.5827 20.4167 73.9263 20.4167 69.416M36.75 69.416C36.75 64.9057 33.0937 61.2494 28.5833 61.2494C24.073 61.2494 20.4167 64.9057 20.4167 69.416M36.75 69.416H61.25M20.4167 69.416C15.9063 69.416 12.25 65.7597 12.25 61.2493V44.916H63.7C72.8868 44.916 77.4803 44.916 80.7004 47.2556C81.7403 48.0111 82.6549 48.9257 83.4105 49.9656C85.75 53.1858 85.75 57.7792 85.75 66.966V69.416H77.5833M77.5833 69.416C77.5833 73.9263 73.927 77.5827 69.4167 77.5827C64.9063 77.5827 61.25 73.9263 61.25 69.416M77.5833 69.416C77.5833 64.9057 73.927 61.2494 69.4167 61.2494C64.9063 61.2494 61.25 64.9057 61.25 69.416" stroke="#292556" stroke-width="6.125" stroke-linejoin="round"/>
</svg>
