<svg width="98" height="98" viewBox="0 0 98 98" fill="none" xmlns="http://www.w3.org/2000/svg">
<path d="M30.6257 38.7923C30.6257 41.0475 28.7975 42.8757 26.5423 42.8757C24.2872 42.8757 22.459 41.0475 22.459 38.7923C22.459 36.5372 24.2872 34.709 26.5423 34.709C28.7975 34.709 30.6257 36.5372 30.6257 38.7923Z" fill="#292556"/>
<path d="M46.959 38.7923C46.959 41.0475 45.1308 42.8757 42.8757 42.8757C40.6205 42.8757 38.7923 41.0475 38.7923 38.7923C38.7923 36.5372 40.6205 34.709 42.8757 34.709C45.1308 34.709 46.959 36.5372 46.959 38.7923Z" fill="#292556"/>
<path d="M63.2923 38.7923C63.2923 41.0475 61.4642 42.8757 59.209 42.8757C56.9538 42.8757 55.1257 41.0475 55.1257 38.7923C55.1257 36.5372 56.9538 34.709 59.209 34.709C61.4642 34.709 63.2923 36.5372 63.2923 38.7923Z" fill="#292556"/>
<path d="M43.8977 59.2143C43.8977 65.9798 49.3822 71.4643 56.1477 71.4643H65.3352L77.5852 81.6726V71.4643H77.6242C82.113 71.4643 85.7518 67.8254 85.7518 63.3366V45.9434C85.7518 39.1779 80.2673 33.6934 73.5018 33.6934M26.5417 59.209L22.4583 69.4173L42.875 59.209H52.0625C60.6648 59.209 64.966 59.209 68.0557 57.1445C69.3933 56.2507 70.5418 55.1023 71.4355 53.7647C73.5 50.675 73.5 46.3738 73.5 37.7715C73.5 29.1692 73.5 24.868 71.4355 21.7782C70.5418 20.4407 69.3933 19.2922 68.0557 18.3985C64.966 16.334 60.6648 16.334 52.0625 16.334H33.6875C25.0852 16.334 20.784 16.334 17.6943 18.3985C16.3567 19.2922 15.2082 20.4407 14.3145 21.7782C12.25 24.868 12.25 29.1692 12.25 37.7715V46.959C12.25 53.7245 17.7345 59.209 24.5 59.209H26.5417Z" stroke="#292556" stroke-width="6.125" stroke-linecap="round" stroke-linejoin="round"/>
</svg>
