<svg width="98" height="98" viewBox="0 0 98 98" fill="none" xmlns="http://www.w3.org/2000/svg">
<path d="M20.416 17.3542C20.416 14.5352 22.7012 12.25 25.5202 12.25C28.3391 12.25 30.6243 14.5352 30.6243 17.3542V80.6458C30.6243 83.4648 28.3391 85.75 25.5202 85.75C22.7012 85.75 20.416 83.4648 20.416 80.6458V17.3542Z" stroke="#292556" stroke-width="6.125" stroke-linejoin="round"/>
<path d="M30.6243 20.4167C43.4863 23.2749 53.3473 24.1324 63.7083 22.9893C69.8449 22.3123 72.9131 21.9737 74.7236 23.1148C75.3526 23.5113 75.7869 23.9003 76.2499 24.482C77.5827 26.1564 77.5827 28.95 77.5827 34.5372V48.5586C77.5827 52.2615 77.5827 54.113 76.6474 55.6051C76.3594 56.0645 75.9501 56.5505 75.5464 56.9125C74.2353 58.088 72.545 58.3799 69.1644 58.9637C56.6786 61.1198 45.7178 60.5208 30.6243 57.1667V20.4167Z" stroke="#292556" stroke-width="6.125" stroke-linejoin="round"/>
</svg>
