<svg width="98" height="98" viewBox="0 0 98 98" fill="none" xmlns="http://www.w3.org/2000/svg">
<path d="M49 85.75H32.6667M49 85.75H65.3333M49 85.75V65.3333M49 12.25V20.4167M49 20.4167H44.1C41.0377 20.4167 39.5066 20.4167 38.4332 21.1965C38.0866 21.4484 37.7817 21.7532 37.5298 22.0999C36.75 23.1732 36.75 24.7044 36.75 27.7667V29.4C36.75 32.4623 36.75 33.9934 37.5298 35.0668C37.7817 35.4134 38.0866 35.7183 38.4332 35.9702C39.5066 36.75 41.0377 36.75 44.1 36.75H49M49 20.4167H75.5417L85.75 28.5833L75.5417 36.75H49M49 36.75V49M49 49H53.9C56.9623 49 58.4934 49 59.5668 49.7798C59.9134 50.0317 60.2183 50.3366 60.4702 50.6832C61.25 51.7566 61.25 53.2877 61.25 56.35V57.9833C61.25 61.0456 61.25 62.5768 60.4702 63.6501C60.2183 63.9968 59.9134 64.3016 59.5668 64.5535C58.4934 65.3333 56.9623 65.3333 53.9 65.3333H49M49 49H22.4583L12.25 57.1667L22.4583 65.3333H49" stroke="#292556" stroke-width="6.125" stroke-linecap="round" stroke-linejoin="round"/>
</svg>
