<svg width="98" height="98" viewBox="0 0 98 98" fill="none" xmlns="http://www.w3.org/2000/svg">
<path d="M77.5827 24.4993C77.5827 26.7545 75.7545 28.5827 73.4993 28.5827C71.2442 28.5827 69.416 26.7545 69.416 24.4993C69.416 22.2442 71.2442 20.416 73.4993 20.416C75.7545 20.416 77.5827 22.2442 77.5827 24.4993Z" fill="#292556"/>
<path d="M63.9722 52.0625C65.6636 52.0625 67.0347 50.6914 67.0347 49C67.0347 47.3086 65.6636 45.9375 63.9722 45.9375V49V52.0625ZM76.8543 40.1292L74.802 37.856L76.8543 40.1292ZM61.4805 27.1486L64.4938 26.6016C63.3357 20.2228 67.9235 15.3125 73.5001 15.3125V12.25V9.1875C64.1406 9.1875 56.62 17.5204 58.4673 27.6957L61.4805 27.1486ZM73.5001 12.25V15.3125C79.0764 15.3125 83.6641 20.2227 82.5063 26.6018L85.5196 27.1486L88.5328 27.6955C90.3796 17.5206 82.8596 9.1875 73.5001 9.1875V12.25ZM70.1459 40.1291L72.1982 37.856C70.6815 36.4866 68.9095 34.6943 67.4256 32.6824C65.9235 30.6459 64.8499 28.5632 64.4938 26.6016L61.4805 27.1486L58.4673 27.6957C59.0555 30.9356 60.7061 33.8909 62.4964 36.3181C64.3048 38.77 66.3934 40.8672 68.0936 42.4022L70.1459 40.1291ZM85.5196 27.1486L82.5063 26.6018C82.1503 28.5633 81.0768 30.6459 79.5747 32.6825C78.0907 34.6944 76.3188 36.4867 74.802 37.856L76.8543 40.1292L78.9065 42.4023C80.6068 40.8673 82.6954 38.7701 84.5039 36.3182C86.2942 33.8909 87.9448 30.9355 88.5328 27.6955L85.5196 27.1486ZM35.7292 49V52.0625H63.9722V49V45.9375H35.7292V49ZM35.7292 63.2917V66.3542H74.5208V63.2917V60.2292H35.7292V63.2917ZM74.5208 77.5833V74.5208H28.5833V77.5833V80.6458H74.5208V77.5833ZM20.4167 85.75V82.6875C17.5977 82.6875 15.3125 80.4023 15.3125 77.5833H12.25H9.1875C9.1875 83.785 14.215 88.8125 20.4167 88.8125V85.75ZM28.5833 77.5833H25.5208C25.5208 80.4023 23.2356 82.6875 20.4167 82.6875V85.75V88.8125C26.6184 88.8125 31.6458 83.785 31.6458 77.5833H28.5833ZM20.4167 69.4167V72.4792C23.2356 72.4792 25.5208 74.7644 25.5208 77.5833H28.5833H31.6458C31.6458 71.3816 26.6184 66.3542 20.4167 66.3542V69.4167ZM20.4167 69.4167V66.3542C14.215 66.3542 9.1875 71.3816 9.1875 77.5833H12.25H15.3125C15.3125 74.7644 17.5977 72.4792 20.4167 72.4792V69.4167ZM74.5208 63.2917V66.3542C76.776 66.3542 78.6042 68.1823 78.6042 70.4375H81.6667H84.7292C84.7292 64.7996 80.1588 60.2292 74.5208 60.2292V63.2917ZM28.5833 56.1458H25.5208C25.5208 61.7837 30.0913 66.3542 35.7292 66.3542V63.2917V60.2292C33.474 60.2292 31.6458 58.401 31.6458 56.1458H28.5833ZM35.7292 49V45.9375C30.0913 45.9375 25.5208 50.5079 25.5208 56.1458H28.5833H31.6458C31.6458 53.8907 33.474 52.0625 35.7292 52.0625V49ZM81.6667 70.4375H78.6042C78.6042 72.6927 76.776 74.5208 74.5208 74.5208V77.5833V80.6458C80.1587 80.6458 84.7292 76.0754 84.7292 70.4375H81.6667ZM70.1459 40.1291L68.0936 42.4022C71.1886 45.1966 75.8115 45.1967 78.9065 42.4023L76.8543 40.1292L74.802 37.856C74.0385 38.5454 72.9617 38.5454 72.1982 37.856L70.1459 40.1291Z" fill="#292556"/>
</svg>
