<svg width="98" height="98" viewBox="0 0 98 98" fill="none" xmlns="http://www.w3.org/2000/svg">
<path d="M36.75 28.5833V24.5C36.75 20.6948 36.75 18.7922 37.3717 17.2914C38.2005 15.2904 39.7904 13.7005 41.7914 12.8717C43.2922 12.25 45.1948 12.25 49 12.25C52.8052 12.25 54.7078 12.25 56.2086 12.8717C58.2096 13.7005 59.7995 15.2904 60.6284 17.2914C61.25 18.7922 61.25 20.6948 61.25 24.5V28.5833M49 81.6667C39.4495 81.6667 34.6743 81.6667 31.188 79.4761C29.3701 78.3338 27.8329 76.7966 26.6906 74.9786C24.5 71.4924 24.5 66.7171 24.5 57.1667V53.0833C24.5 43.5329 24.5 38.7576 26.6906 35.2714C27.8329 33.4534 29.3701 31.9162 31.188 30.7739C34.6743 28.5833 39.4495 28.5833 49 28.5833C58.5505 28.5833 63.3257 28.5833 66.812 30.7739C68.6299 31.9162 70.1671 33.4534 71.3094 35.2714C73.5 38.7576 73.5 43.5329 73.5 53.0833V57.1667C73.5 66.7171 73.5 71.4924 71.3094 74.9786C70.1671 76.7966 68.6299 78.3338 66.812 79.4761C63.3257 81.6667 58.5505 81.6667 49 81.6667Z" stroke="#292556" stroke-width="6.125" stroke-linejoin="round"/>
<path d="M35.7298 82.6882C35.7298 85.5071 33.4446 87.7923 30.6257 87.7923C27.8067 87.7923 25.5215 85.5071 25.5215 82.6882C25.5215 79.8692 27.8067 77.584 30.6257 77.584C33.4446 77.584 35.7298 79.8692 35.7298 82.6882Z" fill="#292556"/>
<path d="M72.4798 82.6882C72.4798 85.5071 70.1946 87.7923 67.3757 87.7923C64.5567 87.7923 62.2715 85.5071 62.2715 82.6882C62.2715 79.8692 64.5567 77.584 67.3757 77.584C70.1946 77.584 72.4798 79.8692 72.4798 82.6882Z" fill="#292556"/>
</svg>
