<svg width="98" height="98" viewBox="0 0 98 98" fill="none" xmlns="http://www.w3.org/2000/svg">
<path d="M61.25 69.4167H36.75M61.25 69.4167V73.5C61.25 77.3052 61.25 79.2078 60.6284 80.7086C59.7995 82.7096 58.2096 84.2995 56.2086 85.1284C54.7078 85.75 52.8052 85.75 49 85.75C45.1948 85.75 43.2922 85.75 41.7914 85.1284C39.7904 84.2995 38.2005 82.7096 37.3717 80.7086C36.75 79.2078 36.75 77.3052 36.75 73.5V69.4167M61.25 69.4167V65.3035C61.25 63.9955 61.6612 62.7205 62.4255 61.659L69.3691 52.0152C81.3231 35.4124 69.4586 12.25 49 12.25C28.5415 12.25 16.6769 35.4124 28.6309 52.0152L35.5745 61.659C36.3388 62.7205 36.75 63.9955 36.75 65.3035V69.4167M42.875 46.9583L49 57.1667L55.125 46.9583M12.25 12.25L17.2614 18.375M85.75 12.25L80.7386 18.375M85.75 61.25L80.7386 55.125M12.25 61.25L17.2614 55.125M12.25 36.75H14.2917M85.75 36.75H83.7083" stroke="#292556" stroke-width="6.125" stroke-linecap="round" stroke-linejoin="round"/>
</svg>
