<svg width="98" height="98" viewBox="0 0 98 98" fill="none" xmlns="http://www.w3.org/2000/svg">
<path d="M23.4785 42.8757L28.3785 47.9798L39.8119 37.7715" stroke="#292556" stroke-width="6.125" stroke-linecap="round" stroke-linejoin="round"/>
<path d="M36.75 69.416C36.75 73.9263 33.0937 77.5827 28.5833 77.5827C24.073 77.5827 20.4167 73.9263 20.4167 69.416M36.75 69.416C36.75 64.9057 33.0937 61.2494 28.5833 61.2494C24.073 61.2494 20.4167 64.9057 20.4167 69.416M36.75 69.416H61.25M20.4167 69.416C20.4167 69.416 20.4167 69.416 20.4167 69.416C15.9063 69.416 12.25 65.7597 12.25 61.2494C12.25 61.2494 12.25 61.2494 12.25 61.2493V35.116C12.25 28.9915 12.25 25.9292 13.8097 23.7824C14.3134 23.0891 14.9231 22.4794 15.6164 21.9757C17.7632 20.416 20.8254 20.416 26.95 20.416H36.3417C42.4662 20.416 45.5285 20.416 47.6752 21.9757C48.3686 22.4794 48.9783 23.0891 49.482 23.7824C51.0417 25.9292 51.0417 28.9915 51.0417 35.116V40.8327C51.0417 37.0275 51.0417 35.1249 51.6633 33.6241C52.4922 31.623 54.082 30.0332 56.0831 29.2043C57.5839 28.5827 59.4865 28.5827 63.2917 28.5827H66.4566C70.3741 28.5827 72.3329 28.5827 73.994 29.3705C74.5392 29.6291 75.0541 29.9473 75.5291 30.3193C76.9767 31.4527 77.8527 33.2047 79.6046 36.7086L84.1981 45.8955C84.8843 47.268 85.2275 47.9543 85.436 48.6846C85.5054 48.9273 85.5634 49.1732 85.61 49.4213C85.75 50.1678 85.75 50.935 85.75 52.4695V61.2494M77.5833 69.416C77.5833 73.9263 73.927 77.5827 69.4167 77.5827C64.9063 77.5827 61.25 73.9263 61.25 69.416M77.5833 69.416C77.5833 64.9057 73.927 61.2494 69.4167 61.2494C64.9063 61.2494 61.25 64.9057 61.25 69.416M77.5833 69.416C77.5833 69.416 77.5833 69.416 77.5833 69.416C82.0937 69.416 85.75 65.7597 85.75 61.2494M85.75 61.2494C85.75 61.2494 85.75 61.2494 85.75 61.2494ZM61.25 38.791H69.4167L74.5208 48.9994H61.25V38.791Z" stroke="#292556" stroke-width="6.125" stroke-linecap="round" stroke-linejoin="round"/>
</svg>
